<svg xmlns="http://www.w3.org/2000/svg" width="469.04" height="74.2"><g fill="#13138d"><path d="M0 5.1h32.388v21.998h.21L57.295 5.101h36.31l-29.79 26.978L98.28 69.1H57.295L32.598 42.903h-.21v26.196H0V5.101zM145.074 57.998c14.406 0 13.454-16.07 13.454-21.376 0-5.307.16-20.032-13.454-20.032-13.619 0-13.456 14.725-13.456 20.032s-.96 21.376 13.456 21.376m0-54.677c36.774 0 46.777 7.711 46.777 33.972 0 26.263-10.003 33.973-46.777 33.973-36.778 0-46.779-7.71-46.779-33.973 0-26.26 10-33.972 46.78-33.972M261.697 45.066v24.463h33.25V5.536h-33.25v21.995h-23.855V5.536h-33.257V69.53h33.257V45.066h23.855zM310.67 5.536h34.022v48.762s27.155.078 30.763.078c3.613 0 5.745-3.239 5.745-3.239V69.53h-70.53V5.536zM460.527 26.721c-7.038-5.633-13.07-7.526-19.557-7.632-6.34-.11-12.131 2.095-12.131 5.954 0 3.046 4.329 4.308 19.473 7.463 12.441 2.604 20.728 8.958 20.728 20.789 0 13.353-22.216 20.904-42.086 20.904-13.95 0-24.66-2.512-34.243-6.812V49.464c5.923 6.18 19.176 9.461 29.33 9.461 5.632 0 8.396-.827 8.396-5.308 0-2.773-3.512-5.302-14.145-7.249-20.145-3.69-26.953-9.458-26.953-19.317 0-14.16 17.608-22.589 39.306-22.589 11.696 0 22.437.362 31.882 4.754V26.72z"/><path d="M362.262 31.642l2.33-4.11c-7.013-3.469-9.08-12.291-5.52-17.322 3.83-5.414 14.465-7.734 20.208.646 4.89 7.15.21 13.207-1.913 14.943-2.123 1.732-15.105 5.843-15.105 5.843"/></g></svg>